<svg id="Layer_1" xmlns="http://www.w3.org/2000/svg" xmlns:xlink="http://www.w3.org/1999/xlink" viewBox="0 0 400 400"><style>.st4{clip-path:url(#SVGID_2_);fill:#89dae5}.st8{clip-path:url(#SVGID_4_)}.st9{fill:none;stroke:#ade0ee;stroke-width:3;stroke-miterlimit:10}</style><path fill="#ffe578" d="M200 9.1l15 19.7L233.2 12l11.3 22 20.8-13.4 7.3 23.7 22.9-9.7 3.1 24.6 24.1-5.5-1.2 24.8 24.8-1.2-5.5 24.1 24.6 3.1-9.7 22.9 23.7 7.3-13.4 20.8 22 11.3-16.8 18.2 19.7 15-19.7 15 16.8 18.2-22 11.3 13.4 20.8-23.7 7.3 9.7 22.9-24.6 3.1 5.5 24.1-24.8-1.2 1.2 24.8-24.1-5.5-3.1 24.6-22.9-9.7-7.3 23.7-20.8-13.4-11.3 22-18.2-16.8-15 19.7-15-19.7-18.2 16.8-11.3-22-20.8 13.4-7.3-23.7-22.9 9.7-3.1-24.6-24.1 5.5 1.2-24.8-24.8 1.2 5.5-24.1-24.6-3.1 9.7-22.9-23.7-7.3L34 244.5l-22-11.3L28.8 215 9.1 200l19.7-15L12 166.8l22-11.3-13.4-20.8 23.7-7.3-9.7-22.9 24.6-3.1-5.5-24.1 24.8 1.2-1.2-24.8 24.1 5.5 3.1-24.6 22.9 9.7 7.3-23.7L155.5 34l11.3-22L185 28.8z"/><circle cx="200" cy="200" r="157.2" fill="#448450"/><defs><circle id="SVGID_1_" cx="200" cy="200" r="157.2"/></defs><clipPath id="SVGID_2_"><use xlink:href="#SVGID_1_" overflow="visible"/></clipPath><circle cx="200" cy="200" r="157.2" clip-path="url(#SVGID_2_)" fill="#328a55"/><path d="M42.8 200c0 86.8 70.4 157.2 157.2 157.2S357.2 286.8 357.2 200H42.8z" clip-path="url(#SVGID_2_)" fill="#70bf4f"/><path class="st4" d="M-35.9 488.3C-35.9 358 69.7 252.4 200 252.4S435.9 358 435.9 488.3H-35.9zM-35.9-88.3C-35.9 42 69.7 147.6 200 147.6S435.9 42 435.9-88.3H-35.9z"/><path fill="#fdc57c" d="M142.2 135.7h117.6V218H142.2z"/><path fill="#fff4e4" d="M223.5 218H289v-69.6l-89-72-89 72V218h65.5l23.5-56.7z"/><path d="M200 42.8c-86.8 0-157.2 70.4-157.2 157.2S113.2 357.2 200 357.2 357.2 286.8 357.2 200 286.8 42.8 200 42.8zm0 299.4c-78.5 0-142.2-63.7-142.2-142.2S121.5 57.8 200 57.8 342.2 121.5 342.2 200 278.5 342.2 200 342.2z" opacity=".5" fill="#fff"/><g><defs><path id="SVGID_3_" d="M315.6 282.7c-34.2-19.3-73.6-30.3-115.6-30.3s-81.5 11-115.6 30.3c25.8 36 68 59.5 115.6 59.5s89.9-23.5 115.6-59.5z"/></defs><clipPath id="SVGID_4_"><use xlink:href="#SVGID_3_" overflow="visible" opacity=".4"/></clipPath><g class="st8"><path class="st9" d="M24.8 275c9.6 0 9.6 7.8 15.9 7.8S47 275 56.6 275s9.6 7.8 15.9 7.8S79 275 88.6 275s9.6 7.8 15.9 7.8 6.3-7.8 15.9-7.8c9.6 0 9.6 7.8 15.9 7.8 6.3 0 6.3-7.8 15.9-7.8s9.6 7.8 15.9 7.8c6.3 0 6.3-7.8 15.9-7.8 9.6 0 9.6 7.8 15.9 7.8 6.3 0 6.3-7.8 15.9-7.8s9.6 7.8 15.9 7.8c6.3 0 6.3-7.8 15.9-7.8 9.6 0 9.6 7.8 15.9 7.8s6.3-7.8 15.9-7.8 9.6 7.8 15.9 7.8c6.3 0 6.3-7.8 15.9-7.8 9.6 0 9.6 7.8 15.9 7.8 6.3 0 6.3-7.8 15.9-7.8s9.6 7.8 15.9 7.8 6.3-7.8 15.9-7.8 9.6 7.8 15.9 7.8"/></g><g class="st8"><path class="st9" d="M24.8 293.1c9.6 0 9.6 7.8 15.9 7.8s6.3-7.8 15.9-7.8 9.6 7.8 15.9 7.8 6.3-7.8 15.9-7.8 9.6 7.8 15.9 7.8 6.3-7.8 15.9-7.8c9.6 0 9.6 7.8 15.9 7.8 6.3 0 6.3-7.8 15.9-7.8s9.6 7.8 15.9 7.8c6.3 0 6.3-7.8 15.9-7.8 9.6 0 9.6 7.8 15.9 7.8 6.3 0 6.3-7.8 15.9-7.8s9.6 7.8 15.9 7.8c6.3 0 6.3-7.8 15.9-7.8 9.6 0 9.6 7.8 15.9 7.8s6.3-7.8 15.9-7.8 9.6 7.8 15.9 7.8c6.3 0 6.3-7.8 15.9-7.8 9.6 0 9.6 7.8 15.9 7.8 6.3 0 6.3-7.8 15.9-7.8s9.6 7.8 15.9 7.8 6.3-7.8 15.9-7.8 9.6 7.8 15.9 7.8"/></g><g class="st8"><path class="st9" d="M24.8 256.9c9.6 0 9.6 7.8 15.9 7.8s6.3-7.8 15.9-7.8 9.6 7.8 15.9 7.8 6.3-7.8 15.9-7.8 9.6 7.8 15.9 7.8 6.3-7.8 15.9-7.8c9.6 0 9.6 7.8 15.9 7.8 6.3 0 6.3-7.8 15.9-7.8s9.6 7.8 15.9 7.8c6.3 0 6.3-7.8 15.9-7.8 9.6 0 9.6 7.8 15.9 7.8 6.3 0 6.3-7.8 15.9-7.8s9.6 7.8 15.9 7.8c6.3 0 6.3-7.8 15.9-7.8 9.6 0 9.6 7.8 15.9 7.8s6.3-7.8 15.9-7.8 9.6 7.8 15.9 7.8c6.3 0 6.3-7.8 15.9-7.8 9.6 0 9.6 7.8 15.9 7.8 6.3 0 6.3-7.8 15.9-7.8s9.6 7.8 15.9 7.8 6.3-7.8 15.9-7.8 9.6 7.8 15.9 7.8"/></g><g class="st8"><path class="st9" d="M24.8 311.2c9.6 0 9.6 7.8 15.9 7.8s6.3-7.8 15.9-7.8 9.6 7.8 15.9 7.8 6.3-7.8 15.9-7.8 9.6 7.8 15.9 7.8 6.3-7.8 15.9-7.8c9.6 0 9.6 7.8 15.9 7.8 6.3 0 6.3-7.8 15.9-7.8s9.6 7.8 15.9 7.8c6.3 0 6.3-7.8 15.9-7.8 9.6 0 9.6 7.8 15.9 7.8 6.3 0 6.3-7.8 15.9-7.8s9.6 7.8 15.9 7.8c6.3 0 6.3-7.8 15.9-7.8 9.6 0 9.6 7.8 15.9 7.8s6.3-7.8 15.9-7.8 9.6 7.8 15.9 7.8c6.3 0 6.3-7.8 15.9-7.8 9.6 0 9.6 7.8 15.9 7.8 6.3 0 6.3-7.8 15.9-7.8s9.6 7.8 15.9 7.8 6.3-7.8 15.9-7.8 9.6 7.8 15.9 7.8"/></g><g class="st8"><path class="st9" d="M24.8 329.3c9.6 0 9.6 7.8 15.9 7.8s6.3-7.8 15.9-7.8 9.6 7.8 15.9 7.8 6.3-7.8 15.9-7.8 9.6 7.8 15.9 7.8 6.3-7.8 15.9-7.8c9.6 0 9.6 7.8 15.9 7.8 6.3 0 6.3-7.8 15.9-7.8s9.6 7.8 15.9 7.8c6.3 0 6.3-7.8 15.9-7.8 9.6 0 9.6 7.8 15.9 7.8 6.3 0 6.3-7.8 15.9-7.8s9.6 7.8 15.9 7.8c6.3 0 6.3-7.8 15.9-7.8 9.6 0 9.6 7.8 15.9 7.8s6.3-7.8 15.9-7.8 9.6 7.8 15.9 7.8c6.3 0 6.3-7.8 15.9-7.8 9.6 0 9.6 7.8 15.9 7.8 6.3 0 6.3-7.8 15.9-7.8s9.6 7.8 15.9 7.8 6.3-7.8 15.9-7.8 9.6 7.8 15.9 7.8"/></g></g><path d="M240.7 139.8c-32.9-22.3-77.9-13.6-100.2 19.3-20.4 30.1-14.9 70.3 11.4 94L102 327a9.99 9.99 0 0 0 2.7 13.9c2.3 1.5 5 2 7.5 1.5s4.8-1.9 6.4-4.2l50-73.9c14.4 7.1 30.4 8.9 45.4 6 18.1-3.5 34.9-13.9 46.1-30.4 22.2-32.9 13.6-77.8-19.4-100.1zm2.8 89c-16.1 23.8-48.6 30.1-72.4 14-23.8-16.1-30.1-48.6-14-72.4 8.1-11.9 20.2-19.4 33.3-22 13.1-2.5 27.2-.1 39.1 8 23.8 16.1 30.1 48.5 14 72.4z" opacity=".3" fill="#fff" stroke="#282525" stroke-width="6" stroke-miterlimit="10"/></svg>